/* XPM */
static char *result[] = {
/* columns rows colors chars-per-pixel */
"64 64 43 1 ",
"  c black",
". c #010101",
"X c #020202",
"o c gray1",
"O c #070707",
"+ c #0A0A06",
"@ c #150E05",
"# c #181007",
"$ c #131313",
"% c #202016",
"& c #2C2010",
"* c #2E2A13",
"= c #302313",
"- c #312413",
"; c gray14",
": c #252525",
"> c gray22",
", c gray23",
"< c #3C3C3C",
"1 c #43321D",
"2 c #464633",
"3 c #464634",
"4 c #474734",
"5 c #4C4C39",
"6 c #51513D",
"7 c #55553F",
"8 c #434343",
"9 c gray27",
"0 c #464646",
"q c #555540",
"w c #565640",
"e c #585842",
"r c #5D5D46",
"t c #67674D",
"y c #67674E",
"u c #68684E",
"i c #797969",
"p c #80806F",
"a c #98986F",
"s c #808070",
"d c #818170",
"f c #999970",
"g c #6FC8A0",
/* pixels */
"ggggggggggggsssstttt            uuuuuuuuyyyyyyyyyyyyppppgggggggg",
"ggggggggggggsssstttt            uuuuuuuuyyyyyyyyyyyyppppgggggggg",
"ggggggggggggsssstttt            uuuuuuuuyyyyyyyyyyyyppppgggggggg",
"ggggggggggggsssstttt            uuuuuuuuyyyyyyyyyyyyppppgggggggg",
"ggggssssyyyyyyyy                                yyyyyyyyppppgggg",
"ggggssssyyyyyyyy                                yyyyyyyyppppgggg",
"ggggssssyyyyyyyy                                yyyyyyyyppppgggg",
"ggggssssyyyyyyyy                                yyyyyyyyppppgggg",
"ggggyyyyyyyy9999                                9999ttttyyyypppp",
"ggggyyyyyyyy9999                                9999ttttyyyypppp",
"ggggyyyyyyyy9999                                9999ttttyyyypppp",
"ggggyyyyyyyy9999                                <>>>7777qqqeippp",
"ssssyyyy99999999                                :$$$----===16yyy",
"ssssyyyy99999999                                $          #3yyy",
"ssssyyyy99999999                                $          #3yyy",
"ssssyyyy99999999                                $          #3yyy",
"uuuu00009999                                    =          *3yyy",
"uuuu00009999                                    &          *3yyy",
"uuuu00009999                                    @          *3yyy",
"uuuu00009999                                               *3yyy",
"yyyy9999                                                   O2ttt",
"yyyy9999                                                   O2ttt",
"yyyy9999                                                   O2ttt",
"yyyy9999                                                   O2ttt",
"yyyy                                                       O4uuu",
"yyyy                                                       O4uuu",
"yyyy                                                       O4uuu",
"yyyy                                                       O4uuu",
"yyyy                                                        4uuu",
"yyyy                                                        4uuu",
"yyyy                                                        4uuu",
"yyyy                                                        4uuu",
"yyyy                                                        3yyy",
"yyyy                                                        3yyy",
"yyyy                                                        3yyy",
"yyyy                                                        5yyy",
"yyyy                                                        ryyy",
"yyyy                                                        yyyy",
"yyyy                                                        yyyy",
"yyyy                                                        yyyy",
"yyyy                                                        yyyy",
"yyyy                                                        yyyy",
"yyyy                                                        yyyy",
"yyyy                                                        yyyy",
"yyyy                                                        yyyy",
"yyyy                                                        yyyy",
"yyyy                                                        yyyy",
"yyyy                                                        yyyy",
"tttt9999                                                    uuuu",
"tttt9999                                                    uuuu",
"tttt9999                                                    uuuu",
"tttt9999                                                    uuuu",
"aaaauuuu9999                                            $>99ffff",
"aaaauuuu9999                                            $>99ffff",
"aaaauuuu9999                                 o.X+%%%    ;<99ffff",
"aaaauuuu9999                                 ,>>wwww    <899ffff",
"ggggaaaayyyyyyyy00000000                     999    9999ffffgggg",
"ggggaaaayyyyyyyy00000000                     999    9999ffffgggg",
"ggggaaaayyyyyyyy00000000                     999    9999ffffgggg",
"ggggaaaayyyyyyyy00000000                     999    9999ffffgggg",
"ggggggggffffddddyyyyyyyyyyyyyyyyttttuuuuuuuuyyyyuuuuaaaagggggggg",
"ggggggggffffddddyyyyyyyyyyyyyyyyttttuuuuuuuuyyyyuuuuaaaagggggggg",
"ggggggggffffddddyyyyyyyyyyyyyyyyttttuuuuuuuuyyyyuuuuaaaagggggggg",
"ggggggggffffddddyyyyyyyyyyyyyyyyttttuuuuuuuuyyyyuuuuaaaagggggggg"
};
