/* XPM */
static char *result[] = {
/* columns rows colors chars-per-pixel */
"60 64 198 2 ",
"   c #100D1E",
".  c #0F0E22",
"X  c #120F21",
"o  c #151222",
"O  c #191626",
"+  c #1D1A28",
"@  c #271D2C",
"#  c #2E242B",
"$  c #36242E",
"%  c #38262F",
"&  c #342A2E",
"*  c #272431",
"=  c #372631",
"-  c #382631",
";  c #3B2932",
":  c #3C3638",
">  c #432D34",
",  c #492F34",
"<  c #4B3235",
"1  c #45343B",
"2  c #48373E",
"3  c #583737",
"4  c #5D3A38",
"5  c #693F37",
"6  c #633D39",
"7  c #693F39",
"8  c #394F37",
"9  c #6C423B",
"0  c #71463C",
"q  c #744C3E",
"w  c #794D3D",
"e  c #6C5135",
"r  c #7C5C39",
"t  c #333854",
"y  c #483740",
"u  c #4D4E5D",
"i  c #744D45",
"p  c #675542",
"a  c #68574A",
"s  c #7C5442",
"d  c #715C44",
"f  c #685959",
"g  c #566944",
"h  c #786956",
"j  c #4C4F62",
"k  c #595F73",
"l  c #665860",
"z  c #695B62",
"x  c #746D6E",
"c  c #6C6D7A",
"v  c #746E76",
"b  c #767477",
"n  c #825E3D",
"m  c #87623C",
"M  c #896747",
"N  c #966C41",
"B  c #9F6D43",
"V  c #85734D",
"C  c #88784B",
"Z  c #A06D43",
"A  c #A57546",
"S  c #AF7945",
"D  c #B37E46",
"F  c #837975",
"G  c #769850",
"H  c #7DC55D",
"J  c #938651",
"K  c #9A8855",
"L  c #859C55",
"P  c #9E9254",
"I  c #A48D4A",
"U  c #A38553",
"Y  c #AD8E56",
"T  c #B28751",
"R  c #A19557",
"E  c #B29559",
"W  c #B8B559",
"Q  c #9A906C",
"!  c #AE926E",
"~  c #AE9376",
"^  c #BAAC62",
"/  c #B4B077",
"(  c #D3984A",
")  c #D4994A",
"_  c #C29A5C",
"`  c #DFA24C",
"'  c #E5A74D",
"]  c #F1AF4C",
"[  c #F3B24F",
"{  c #F2B150",
"}  c #F8B650",
"|  c #F1B458",
" . c #C4AD62",
".. c #C7B363",
"X. c #CBB57D",
"o. c #F1B962",
"O. c #84C55D",
"+. c #95CC63",
"@. c #DEC76B",
"#. c #DFCC6E",
"$. c #DEC978",
"%. c #E3D16F",
"&. c #F6D167",
"*. c #F7D469",
"=. c #E9CF75",
"-. c #F5DB76",
";. c #E9E376",
":. c #F2E174",
">. c #F9E776",
",. c #FBE976",
"<. c #F8E77D",
"1. c #FBE979",
"2. c #FFF07A",
"3. c #264C85",
"4. c #2E5184",
"5. c #797780",
"6. c #877C82",
"7. c #6FC4D1",
"8. c #71E8F9",
"9. c #8B8A92",
"0. c #949299",
"q. c #9A969C",
"w. c #A99890",
"e. c #B09995",
"r. c #989AA6",
"t. c #909DB6",
"y. c #A19FA7",
"u. c #96A3B9",
"i. c #A6A4A6",
"p. c #B9B1AD",
"a. c #AFAEB4",
"s. c #B7B6BA",
"d. c #CCB686",
"f. c #C7BBAC",
"g. c #C9BDB6",
"h. c #94CFBD",
"j. c #A7CFAE",
"k. c #B6D8A9",
"l. c #B9E1A7",
"z. c #D6C987",
"x. c #D4CC90",
"c. c #F5C781",
"v. c #F6CF93",
"b. c #E4DA98",
"n. c #F9E987",
"m. c #F7EA96",
"M. c #FAEC92",
"N. c #FFF199",
"B. c #CBCAAA",
"V. c #CEC0BE",
"C. c #DDD7BC",
"Z. c #E2D6A6",
"A. c #F8DBA3",
"S. c #EED8B7",
"D. c #ECD8B8",
"F. c #FADFB6",
"G. c #CCE7BE",
"H. c #F4E9A5",
"J. c #F6ECA9",
"K. c #FEF1A4",
"L. c #FCF1AC",
"P. c #E7E1BF",
"I. c #F6E8B8",
"U. c #FCF2B1",
"Y. c #FEF4BC",
"T. c #A9B8CE",
"R. c #BEC8D8",
"E. c #9AE8D2",
"W. c #C6C5C8",
"Q. c #D6D0C9",
"!. c #CACED7",
"~. c #C9D3DC",
"^. c #D2D1D4",
"/. c #DCD9DB",
"(. c #E3DAC8",
"). c #E3DDD3",
"_. c #E3DBDA",
"`. c #CBE8C0",
"'. c #EDE1CE",
"]. c #F1EBC4",
"[. c #FDE8C8",
"{. c #FCF6CD",
"}. c #EEE4D7",
"|. c #EEEBD6",
" X c #F1EED6",
".X c #FDF7D2",
"XX c #FCF0DE",
"oX c #EEECE3",
"OX c #ECECEC",
"+X c #F8F6E3",
"@X c #F5F3EC",
"#X c #EFF4F2",
"$X c #F2F2F2",
"%X c #F8F6F4",
"&X c #FEFDF4",
"*X c #F8F7F9",
"=X c #F7F8F9",
"-X c #FFFFFF",
/* pixels */
"OXOXOXOXOXOXOXOXOXOXOXOXOXOXOXOXOXOXOXOXOXOXOXOXOXOXOXOXOXOXOX#XOXOXOXOXOXOXOXOXOXOXOXOXOXOXOXOXOXOXOXOXOXOXOXOXOXOXOXOX",
"OXOXOXOXOXOXOXOXOXOXOXoXOXOXOXOXOXOXOXOXOXOXOXOXOXOXOXOXOX#XOXOXOXOXOXOXOXOXOXOXOXOXOXOXOXOXOXOXOXOXOXOXOXOXOXOXOXOXOXOX",
"OXOXOXOXOXOXOXOXOXOXOXOXOXOXOXOXOXOXOXOXOXOXOXOXOXOXW.s.s.s.s.^.OXOXOXOXOXOXOXOXOXOXOXOXOXOXOXOXOXOXOXOXOXOXOXOXOXOXOXOX",
"OXOXOXOXOXOXOXOXOXOXOXOXOXOXOXOXOXOXOXOXOXOXOXOXOXOXu @ + + O 5.OXOXOXOXOXOXOXOXOXOXOXOXOXOXOXOXOXOXOXOXOXOXOXOXOXOXOXOX",
"OXOXOXOXOXOXOXOXOXOXOXOXOXOXOXOXOXOXOXOXOXOXOXOX@XOXu   X X   c $X$XOXOXOXOXOXOXOXOXOXOXOXOXOXOXOXOXOXOXOXOXOXOXOXOXOXOX",
"OXOXOXOXOXOXOXOXOXOXOXOXOXOXOXOXOXOXOXOXOXOXOX^.0.0.5.k k j u c 0.q.W.OXOXOXOXOXOXOXOXOXOXOXOXOXOXOXOXOXOXOXOXOXOXOXOXOX",
"OXOXOXOXOXOXOXOXOXOXOXOXOXOXOXOXOXOXOXOXOXOX@Xa.O o r.~.!.u.t.k   o q.$XOXOXOXOXOXOXOXOXOXOXOXOXOXOXOXOXOXOXOXOXOXOXOXOX",
"OXOXOXOXOXOXOXOXOXOXOXOXoXOXOXOXOXOXOXOXOXOX$Xa.O O r.R.R.t.t.k o o r.OXOXOXOXOXOXOXOXOXOXOXOXOXOXOXOXOXoXOXOXOXOXOXoXOX",
"OXOXOXOX$X%X*X*X$X@XJ.H.I.%X=X XH.H.H.H.H.H.H.x.P P z.Z.b.x.x./ R R z.H.H.H.H.H.H.H.{.=X=X%X=X+XJ.H.].*X=XOXOXOXOXOXOXOX",
"OXOXOXOX$X-X-X-X-X&Xn.>.N.-X-X{.,.,.,.,.,.,.,.,.2.2.1.,.1.,.,.1.,.1.,.,.,.,.,.,.1.>.Y.-X-X-X-X+X1.,.L.-X-X#XOXOXOXOXOXOX",
"OXOXOXOXoXXXXX}._.(.$.@.z._._.Z.@.@.@.#.@.@.@.@.#.#.@.@.@.@.@.@.@.@.@.@.@.@.@.@.@.@.Z._._._._.D.#.@.b.XXXXOXOXOXOXOXOXOX",
"OXOXOX#XD.| | T i i i q s i i i q q q q q q q q q q q q q q q q q q q q q q q q q 0 i i i i i i q q A | o.'.OXOXOXOXOXOX",
"OXOXOXOXS.{ [ S 7 7 9 9 9 7 9 9 9 9 9 9 9 9 9 9 9 9 9 9 9 9 9 9 9 9 7 9 9 9 9 9 9 9 9 9 9 9 9 9 9 7 Z } | '.OXOXOXOXOXOX",
"OXOXOXOXS.{ [ A 3 4 4 4 4 4 4 4 4 3 3 4 4 4 3 4 3 4 4 3 4 4 4 4 4 4 4 4 3 4 4 4 4 4 4 3 3 4 3 4 3 3 N ] | '.OXOXOXOXOXOX",
"OXOXOX#XS.{ { N - ; ; ; ; ; - ; ; ; ; ; ; ; ; ; ; ; ; ; ; ; ; ; ; ; ; ; ; ; ; ; - ; ; ; ; ; ; ; ; - n ] | '.OXOXOXOXOXOX",
"OXOXOXOXS.{ { N - ; ; ; ; ; ; ; ; ; ; ; ; ; ; ; ; ; ; ; ; ; ; ; ; ; ; ; ; ; ; ; - ; ; ; ; ; ; ; ; - n ] | (.OXOXOXOXOXoX",
"OXOXOXOXD.{ { N - ; ; ; ; ; ; ; ; ; ; ; ; ; ; ; ; ; ; ; ; ; ; ; ; ; ; ; ; ; ; ; ; ; ; ; ; ; ; ; ; - n { | '.OXOXOXOXOXOX",
"OXOXOXOXD.{ { N - ; ; ; ; ; ; ; ; ; ; ; ; ; ; ; ; ; ; ; ; ; ; ; ; ; ; ; ; ; ; ; ; ; ; ; ; ; ; ; ; - n { | '.OXOXOXOXOXOX",
"OXOXOXOXD.{ { N = ; ; ; ; ; ; ; ; ; ; ; ; ; ; ; ; ; ; ; ; ; ; ; ; ; ; ; ; ; ; ; ; ; ; ; ; ; ; ; - - n ] | '.OXOXOXOXOXOX",
"OXOXOXOXS.{ } N = ; ; ; ; ; ; ; ; ; ; ; ; ; ; ; ; ; ; ; ; ; ; ; ; ; ; ; ; ; ; ; ; ; ; ; ; ; ; ; ; - n { | '.OXOXOXOXOXOX",
"OXOXOXOXS.{ } N - ; ; ; ; ; ; ; ; ; ; ; ; ; ; ; ; ; ; ; ; ; ; ; ; ; ; ; ; ; ; ; ; ; ; ; ; ; ; ; ; - n ] | ).OXOXOXOXOXOX",
"OXOXOXOXS.{ { B > , < , > ; ; ; ; ; ; ; ; ; - ; ; ; ; ; ; ; ; ; ; ; ; ; ; ; ; ; ; ; ; - ; > > < , , M { | '.OXOXOXOXOXOX",
"OXOXOXOXS.{ { S 9 9 9 9 6 ; ; ; ; ; ; ; ; ; ; ; ; ; ; ; ; ; ; ; ; ; ; ; ; ; ; ; ; ; ; ; ; 4 9 9 i 7 B { | '.OXOXOXOXOXOX",
"OXOXOX#XS.{ { S 7 9 9 9 6 ; ; ; ; ; ; ; ; ; ; ; ; ; ; ; ; ; ; ; ; ; ; ; ; ; ; ; ; ; ; ; ; 4 9 9 6 7 B ] | '.OXOXOXOXOXOX",
"OXOXOXOXS.{ } S 9 9 9 9 7 6 4 6 6 4 4 4 4 6 4 6 4 4 6 4 4 6 4 6 6 6 4 6 4 4 6 4 6 4 4 6 4 7 9 9 7 7 Z { | '.#XOXOXOXOXOX",
"OXOXOXOXD.{ ] S 9 9 9 9 7 9 9 9 i 7 7 i 9 9 9 9 9 9 9 9 9 9 9 9 9 9 9 9 9 9 9 9 9 9 9 9 9 9 9 9 7 7 Z { | ).OXOXOXOXOXOX",
"OXOXOXOXD.] { D w w i w w w w q w w q w q w w w w w w w w w w w w w w w w w s w q w w w w w w w s i S ] | '.OXOXOXOXOXOX",
"OXOXOXOXD.{ } ' ` ` ' ) ` ` ` ' ) ' ' ) ` ` ' ` ` ` ` ` ` ` ` ' ` ` ` ` ` ` ` ` ` ` ' ' ` ` ` ` ` ` ' ] | '.OXOXOXOXOXOX",
"OXOXOXOX(.] { { } ] } } { [ { [ } [ } [ [ [ [ [ [ { [ [ [ [ [ { [ { [ [ } [ [ [ { { { { ] } } ] } } ] ] | '.OXOXOXOXOXOX",
"OXOXOX#XS.] { ' ( ( ) ) ( ( ( ( ) ) ( ( ( ) ( ( ) ) ( ( ) ) ) ) ) ( ) ( ( ( ( ( ( ( ) ) ( ( ( ( ( ( ` ] | '.OXOXOXOXOXOX",
"OXOXOXOXS.{ } S 9 i 0 0 0 0 0 0 0 0 0 0 0 0 0 0 0 0 0 q 0 0 0 0 q 0 0 0 0 0 0 0 9 0 0 0 0 0 i 0 0 0 Z { | '.OXOXOXOXOXOX",
"OXOXOXOXD.{ ] S 7 9 7 7 9 9 9 9 9 9 9 9 9 9 9 9 9 9 9 9 9 9 9 9 9 9 9 9 9 9 9 9 9 9 9 9 9 9 9 7 7 7 Z } | '.OXOXOXOXOXOX",
"OXOXOXOX].*.*.T 7 9 9 9 6 < < < < < < < , , < f g.V.X...^ L G / V.V.d... .p , < < < < < < 6 9 9 9 5 A *.-.'.OXOXOXOXOXOX",
"OXOXOXOX].1.1.E 7 9 9 9 6 ; ; ; % ; ; ; % > % x -X-XK.1.<.O.H l.-X-XL.,.>.e = - ; & & ; ; 3 9 9 9 9 K 1.<.|.OXOXOXOXOXOX",
"OXOXOXOX].>.1.E 5 9 9 9 4 ; ; > 2 2 2 2 2 1 t x &X&XN.>.;.+.O.k.&X&XL.>.-.h y 1 < 1 > ; ; 3 9 9 7 5 U >.<.|.OXOXOXOXOXOX",
"OXOXOXOX].>.1.K ; > > > > ; % b /././._.~.7.7.h.M.M.<.>.>.;.;.;.M.M.n.>.>.(._.f.) ) m ; ; > > > > > V 1.n.|.OXOXOXOXOXOX",
"OXOXOXOX].,.,.K - ; - - ; ; % 6.-X-X-X-X=X8.8.E.:.>.>.>.>.>.>.<.>.>.>.>.1.+X-X[.[ } m ; ; ; ; ; - - C 1.<.|.OXOXOXOXOXOX",
"OXOXOXOX|.U.U.Q @ - r m s t t F I.F.F.F.F.j.j.B.L.L.-.&.&.&.&.&.&.&.&.&.&.A.I.v.[ [ I g g : * # @ @ h U.U.oXOXOXOXOXOXOX",
"OXOXOXOX$X-X-X9.X # ) } _ 4.3.b { ] ] ] ] { ] =.-X-Xc.] ] { { { { { { { { ] ] { ] [ W H H 8 o o O X v -X-XOXOXOXOXOXOXOX",
"OXOXOXOX@X-X-X9.  & ) } E 3.3.x { { ] ] ] { ] c.-X-Xc.] { { { [ [ { { { ] ] { { [ [ W H H 8 o o o   v -X-X$XOXOXOXOXOXOX",
"OXOXOXOX#X-X-X!.r.i.&.*.=.T.T.B.&.&.&.&.&.&.&.-.L.L.-.&.&.&.&.&.&.&.&.&.&.&.&.&.&.&.b.`.G./ P Q i.y.W.-X-X#XOXOXOXOXOXOX",
"OXOXOXOX$X-X-X-X-X&Xn.,.N.-X-X{.>.1.>.1.1.>.1.<.>.>.>.1.>.,.>.<.>.>.1.<.1.>.>.1.>.>.Y.-X-XK.>.N.-X-X-X-X-X@XOXOXOXOXOXOX",
"OXOXOXOX$X-X-X*X=X@Xn.-.m.%X=X].:.-.:.:.-.:.:.:.:.-.:.:.:.:.:.:.:.:.:.-.:.:.:.:.:.;.I.=X=XH.-.m.%X%X*X-X-XOXOXOXOXOXOXOX",
"OXOXOXOX$X-X-Xp.l f p p a f l f p p p p p p p p p p p p p p p p p p p p p p p p p e f z z a e a z f y.-X-XOXOXOXOXOXOXOX",
"OXOXOXOX$X-X-Xq.$ % = = = = & - - - - - = - - = ; - - - - - - - = = - - - - - - - - - & = = = - = $ 6.-X-XOXOXOXOXOXOXOX",
"OXOXOXOXoX.X.X~ % ; < < < < < < < < < < < < < < < < < < < < < < < < < < < < < < < < < < < < < , - = F {..XOXOXOXOXOXOXOX",
"OXOXOXOX].<.>.K - > 9 9 9 9 9 9 9 9 9 9 9 9 9 9 9 9 9 9 9 9 9 9 9 9 9 9 9 9 9 9 9 9 9 9 9 9 9 6 ; = V ,.<.|.OXOXOXOXoXOX",
"OXOXOXOX].>.>.K ; ; 6 9 9 9 9 9 9 9 9 9 9 9 9 9 9 9 9 9 9 9 9 9 9 9 9 9 9 9 9 9 9 9 9 9 9 9 9 6 ; - V >.<.|.OXOXOXOXOXOX",
"OXOXOXOX].<.>.K = ; 4 9 9 9 9 9 9 9 9 9 9 9 9 9 9 9 9 9 9 9 9 9 9 9 9 9 9 9 9 9 9 9 9 9 9 9 9 4 > = V >.<.|.OXOXOXOXOXOX",
"OXOXOXOX].>.1.K = > 9 9 9 9 9 9 9 9 9 9 9 9 9 9 9 9 9 9 9 9 9 9 9 9 9 9 9 9 9 9 9 9 9 9 9 9 9 6 ; % V >.<.|.OXOXOXOXOXOX",
"OXOXOXOX].>.<.K ; ; 9 9 9 9 9 9 9 9 9 9 9 9 9 9 9 9 9 9 9 9 9 9 9 9 9 9 9 9 9 9 9 9 9 9 9 9 9 6 ; = V ,.<.|.OXOXOXOXOXOX",
"OXOXOXOX].>.1.K = > 9 9 9 9 9 9 9 9 9 9 9 9 9 9 9 9 9 9 9 9 9 9 9 9 7 0 9 9 9 9 9 9 9 9 9 9 9 4 ; = V ,.n.|.OXOXOXOXOXOX",
"OXOXOXOX|.1.>.K = ; 6 9 9 9 9 9 9 9 9 9 9 9 9 9 9 9 9 9 9 9 9 9 9 9 0 7 9 9 9 9 9 9 9 0 9 9 9 3 ; $ V 1.n. XOXOXOXOXOXOX",
"OXOXOXOXC.^ ^ J d p i 9 9 9 9 9 9 9 9 9 9 9 9 9 9 9 9 9 9 9 9 9 9 9 9 9 9 9 9 9 9 9 9 9 9 9 9 i d d C ^ ^ '.OXOXOXOXOXOX",
"OXOXOXOXi.+ O J >.%.s 9 9 9 9 9 9 9 9 9 9 9 9 9 9 9 9 9 9 9 9 9 9 9 9 9 9 9 9 9 9 9 9 9 9 9 7 N -.1.R O * W.OXOXOXOXOXOX",
"OXOXOX#Xi.o . C 2.=.s 7 7 7 9 9 5 5 5 5 9 7 7 7 9 5 7 5 7 7 5 7 7 7 7 7 7 7 7 7 7 7 7 7 5 7 5 M >.1.R o + W.#XOXOXOXOXOX",
"OXOXOXOXB.r r M J J R Y Y Y Y ! e.e.e.e.e.e.e.e.e.e.e.e.e.e.e.e.e.e.e.e.e.e.e.w.Y Y ~ e.e.! Y R J J C r M Q.OXOXOXOXOXOX",
"OXOXOXOXS.[ } m . & %.2.,.,.,.L.-X-X-X-X-X-X-X-X-X-X-X-X-X-X-X-X-X-X-X-X-X-X&X{.1.,.Y.-X-XK.1...+   e [ | (.OXOXOXOXOXOX",
"OXOXOXOXS.{ { n o & %.1.1.>.>.L.-X-X-X-X-X-X-X-X-X-X-X-X-X-X-X-X-X-X-X-X-X-X-X.X>.>.Y.-X-XK.,...+   e [ | '.OXOXOXOXOXOX",
"OXOXOXOX}.S.S.f.r.i.P.].].].I. X$X$X$X@X$X%X$X$X$X$X$X$X$X$X$X@X$X$X$X%X$X%X%XoX].]. X$X$X X].C.i.y.p.S.S.oXOXOXOXOXOXOX",
"OXOXOXOXOXOXOXOX#X#XOXOXOXOXOXOXOXOXOXOXOXOXOXOXOXOXOXOXOXOXOXOXOXOXOXOXOXOXOXOXOXOXOXOXOXOXOXOXOX@XOXOXOXOXOXOXOXOXOXOX",
"OXOXOXOXOXOXOXOXOXOXOXOXOXOXOXOXOXOXOXOXOXOXOXOXOXOXOXOXOXOXOXOXOXOXOXOXOXOXOXOXOXOXOXOXOXOXOXOXOXOXOXOXOXOXOXOXOXOXOXOX",
"OXOXOXOXOXOXOXOXOXOXOXOXOXOXOXOXOXOXOXOXOXOXOXOXOXOXOXOXOXOXOXOXOXOXOXOXOXOXOXOXOXOXOXOXOXOXOXOXOXOXOXOXOXOXOXOXOXOXOXOX",
"OXOXOXOXOXOXOXOXOXOXOXOXOXOXOXOXOXOXOXOXOXOXOXOXOXOXOXOXOXOXOXOXOXOXOXOXOXOXOXOXOXOXOXOXOXOXOXOXOXOXOXOXOXOXOXOXOXOXOXOX"
};
