/* XPM */
static char *result[] = {
/* columns rows colors chars-per-pixel */
"64 64 100 2 ",
"   c #CEA058",
".  c #F3B24F",
"X  c #F1B14F",
"o  c #F1B04F",
"O  c #E98E41",
"+  c #E57C3B",
"@  c #E98D41",
"#  c #E57D3B",
"$  c #EA9143",
"%  c #F1B24F",
"&  c #E57F3C",
"*  c #EFA64B",
"=  c #EEA54A",
"-  c #EDA048",
";  c #E8883F",
":  c #F1AF4E",
">  c #E88A40",
",  c #E6803C",
"<  c #EDA249",
"1  c #EC9D47",
"2  c #E7853E",
"3  c #F0AF4E",
"4  c #E7873F",
"5  c #EEA64B",
"6  c #ED9F48",
"7  c #E7843E",
"8  c #E98E42",
"9  c #EFA94C",
"0  c #EDA049",
"q  c #EC9B46",
"w  c #E7863E",
"e  c #E57E3B",
"r  c #EA9344",
"t  c #EFA74B",
"y  c #F1B04E",
"u  c #E88940",
"i  c #EEA44A",
"p  c #EEA249",
"a  c #ED9E48",
"s  c #E88B41",
"d  c #E99042",
"f  c #EFA84C",
"g  c #F0AE4E",
"h  c #E7863F",
"j  c #E67F3C",
"k  c #E6833D",
"l  c #EFAA4C",
"z  c #E98C41",
"x  c #EDA149",
"c  c #EEA34A",
"v  c #EC9C47",
"b  c #EA9243",
"n  c #EFA84B",
"m  c #E57E3C",
"M  c #E88B40",
"N  c #E98F42",
"B  c #EB9845",
"V  c #E6823D",
"C  c #EB9745",
"Z  c #F0AC4D",
"A  c #E57C3A",
"S  c #F1B250",
"D  c #EEA54B",
"F  c #EC9B47",
"G  c #E88C41",
"H  c #EB9544",
"J  c #F0AB4D",
"K  c #F0AD4E",
"L  c #EC9A46",
"P  c #EC9946",
"I  c #EA9444",
"U  c #F2B14E",
"Y  c #F2AE4D",
"T  c #CEA159",
"R  c #F2AF4D",
"E  c #CB9454",
"W  c #EFA148",
"Q  c #C47648",
"!  c #E77F3B",
"~  c #C47548",
"^  c #E77D3A",
"/  c #C47448",
"(  c #E7813C",
")  c #C47447",
"_  c #E7803C",
"`  c #C8864F",
"'  c #EC9544",
"]  c #E7883F",
"[  c #CFA057",
"{  c #F4B24D",
"}  c #F1AE4D",
"|  c #E8883E",
" . c #E67C39",
".. c #BE9F74",
"X. c #DCAE6C",
"o. c #DBAD6C",
"O. c #DAAB6B",
"+. c #D38B5F",
"@. c #D1825C",
"#. c white",
/* pixels */
"  . X X X X X X X X X X X X X X X X X X X X X X X X X X X X X X X X X X X X X X X X X X X X X X X X X X X X X X X X X o O + + + ",
"  . X X X X X X X X X X X X X X X X X X X X X X X X X X X X X X X X X X X X X X X X X X X X X X X X X X X X X X X X X o @ # @ $ ",
"  . X X X X X X X X X X X X X X X X X X X X X X X X X X X X X X X X X X X X X X X X X X X X X X X X X X X X X X X X % X O & * % ",
"  . X X X X X X X X X X X X X X X X X X X X X X X X X X X X X X X X X X X X X X X X X X X X X X X X X X X X X X X o = - ; & * % ",
"  . X X X X X X X X X X X X X X X X X X X X X X X X X X X X X X X X X X X X X X X X X X X X X X X X X X X X X X X : > # # , * % ",
"  . X X X X X X X X X X X X X X X X X X X X X X X X X X X X X X X X X X X X X X X X X X X X X X X X X X X X X X X : > + # , * % ",
"  . X X X X X X X X X X X X X X X X X X X X X X X X X X X X X X X X X X X X X X X X X X X X X X X X X X X X X X % o > + # , * % ",
"  . X X X X X X X X X X X X X X X X X X X X X X X X X X X X X X X X X X X X X X X X X X X X X X X X X X X X X o < 1 2 # # , * % ",
"  . X X X X X X X X X X X X X X X X X X X X X X X X X X X X X X X X X X X X X X X X X X X X X X X X X X X X % 3 4 + # # + & 5 % ",
"  . X X X X X X X X X X X X X X X X X X X X X X X X X X X X X X X X X X X X X X X X X X X X X X X X X X X X * 6 7 # # # 4 8 9 % ",
"  . X X X X X X X X X X X X X X X X X X X X X X X X X X X X X X X X X X X X X X X X X X X X X X X X X X % X @ # # # + # - X X X ",
"  . X X X X X X X X X X X X X X X X X X X X X X X X X X X X X X X X X X X X X X X X X X X X X X X X X o 0 q w + # e @ r t % X X ",
"  . X X X X X X X X X X X X X X X X X X X X X X X X X X X X X X X X X X X X X X X X X X X X X X X X % y u + # # + e i % X X X X ",
"  . X X X X X X X X X X X X X X X X X X X X X X X X X X X X X X X X X X X X X X X X X X X X X X X y p a 2 # # e s d f % X X X X ",
"  . X X X X X X X X X X X X X X X X X X X X X X X X X X X X X X X X X X X X X X X X X X X X X X % g h # # # + j t X X X X X X X ",
"  . X X X X X X X X X X X X X X X X X X X X X X X X X X X X X X X X X X X X X X X X X X X X X X t - k # # # 4 O l X X X X X X X ",
"  . X X X X X X X X X X X X X X X X X X X X X X X X X X X X X X X X X X X X X X X X X X % % % X z # # # + # x X X X X X X X X X ",
"  . X X X X X X X X X X X X X X X X X X X X X X X X X X X X X X X X X X X X X X X X X X c v 1 v w + # e @ b n % X X X X X X X X ",
"  . X X X X X X X X X X X X X X X X X X X X X X X X X X X X X X X X X X X X X X % % % X O + # # # # + m = % X X X X X X X X X X ",
"  . X X X X X X X X X X X X X X X X X X X X X X X X X X X X X X X X X X X X X o i 0 x 0 ; + # # # e M N 9 % X X X X X X X X X X ",
"  . X X X X X X X X X X X X X X X X X X X X X X X X X X X X X X X X X X X X % 3 4 # e e # # # # + , n X X X X X X X X X X X X X ",
"  . X X X X X X X X X X X X X X X X X X X X X X X X X X X X X X X X X X X X x B V # # # # # # e O C Z X X X X X X X X X X X X X ",
"  . X X X X X X X X X X X X X X X X X X X X X X X X X X X X X X X X % % % X z A # # # # + + + # c S X X X X X X X X X X X X X X ",
"  . X X X X X X X X X X X X X X X X X X X X X X X X X X X X X X X y x a a 1 4 + # # # # > d d $ f % X X X X X X X X X X X X X X ",
"  . X X X X X X X X X X X X X X X X X X X X X X X X X X % % % % % g w + # # # # + + + # 0 % X X X X X X X X X X X X X X X X X X ",
"  . X X X X X X X X X X X X X X X X X X X X X X X X X X t x < < p 6 k # # # # e u z z @ D % X X X X X X X X X X X X X X X X X X ",
"  . X X X X X X X X X X X X X X X X X X X X % % % % % X 8 # e e e e # # # # + j * X o o X X X X X X X X X X X X X X X X X X X X ",
"  . X X X X X X X X X X X X X X X X X X X X < F F F F F 4 + # # # # # # # # G H J X X X X X X X X X X X X X X X X X X X X X X X ",
"  . X X X X X X X X X X X X X X % % % % % X z + # # # # # # # # # # + + + # < % X X X X X X X X X X X X X X X X X X X X X X X X ",
"  . X X X X X X X X X X X X X X i 6 6 6 6 6 4 + # # # # # # # # # m G N N N t % X X X X X X X X X X X X X X X X X X X X X X X X ",
"  . X X X X X X X X X X % % % X G + # # # # # # # # # # + + + + + , n X X X X X X X X X X X X X X X X X X X X X X X X X X X X X ",
"  . X X X X X X X X X o = c c p 4 + # # # # # # # # # # 4 s M M M 8 J X X X X X X X X X X X X X X X X X X X X X X X X X X X X X ",
"  . X X X X X X % % % K w e e e # # # # # # + + + + + # 6 X o o o o X X X X X X X X X X X X X X X X X X X X X X X X X X X X X X ",
"  . X X X X X o 0 v 1 L V # # # # # # # # # s b $ $ $ b t % X X X X X X X X X X X X X X X X X X X X X X X X X X X X X X X X X X ",
"  . X X X X % 3 4 + # # # # # # # # # # + # < % X X X X X X X X X X X X X X X X X X X X X X X X X X X X X X X X X X X X X X X X ",
"  . X X X X D a 7 # # # # # # # # # # e > 8 t % X X X X X X X X X X X X X X X X X X X X X X X X X X X X X X X X X X X X X X X X ",
"  . X X % X @ # # # # # # # # # + + + m = X X X X X X X X X X X X X X X X X X X X X X X X X X X X X X X X X X X X X X X X X X X ",
"  . X o 6 P w + # # # # # # # e O I I H l X X X X X X X X X X X X X X X X X X X X X X X X X X X X X X X X X X X X X X X X X X X ",
"  . X 3 ; + # # # # # # # # + # c S % % X X X X X X X X X X X X X X X X X X X X X X X X X X X X X X X X X X X X X X X X X X X X ",
"  . X 3 u + # # # # # # # e G $ f % X X X X X X X X X X X X X X X X X X X X X X X X X X X X X X X X X X X X X X X X X X X X X X ",
"  . % y u + # # # # + + + & 5 % X X X X X X X X X X X X X X X X X X X X X X X X X X X X X X X X X X X X X X X X X X X X X X X X ",
"  U i - 2 + # # # e ; @ z 8 9 X X X X X X X X X X X X X X X X X X X X X X X X X X X X X X X X X X X X X X X X X X X X X X X X X ",
"  Y 4 # # # # # # & c X o o X X X X X X X X X X X X X X X X X X X X X X X X X X X X X X X X X X X X X X X X X X X X X X X X X X ",
"  Y w + # # # # # & i % X X X X X X X X X X X X X X X X X X X X X X X X X X X X X X X X X X X X X X X X X X X X X X X X X X X X ",
"  Y w + # # # # + e i % X X X X X X X X X X X X X X X X X X X X X X X X X X X X X X X X X X X X X X X X X X X X X X X X X X X X ",
"  Y w + # # # e s d f % X X X X X X X X X X X X X X X X X X X X X X X X X X X X X X X X X X X X X X X X X X X X X X X X X X X X ",
"T R w + # # + j t X X X X X X X X X X X X X X X X X X X X X X X X X X X X X X X X X X X X X X X X X X X X X X X X X X X X X X X ",
"E W k # # # 4 O l X X X X X X X X X X X X X X X X X X X X X X X X X X X X X X X X X X X X X X X X X X X X X X X X X X X X X X X ",
"Q ! # # # e x X X X X X X X X X X X X X X X X X X X X X X X X X X X X X X X X X X X X X X X X X X X X X X X X X X X X X X X X X ",
"~ ^ # # # e < % X X X X X X X X X X X X X X X X X X X X X X X X X X X X X X X X X X X X X X X X X X X X X X X X X X X X X X X X ",
"~ ^ # # + # x % X X X X X X X X X X X X X X X X X X X X X X X X X X X X X X X X X X X X X X X X X X X X X X X X X X X X X X X X ",
"~ ^ # e > 8 t % X X X X X X X X X X X X X X X X X X X X X X X X X X X X X X X X X X X X X X X X X X X X X X X X X X X X X X X X ",
"~ ^ # j = X X X X X X X X X X X X X X X X X X X X X X X X X X X X X X X X X X X X X X X X X X X X X X X X X X X X X X X X X X X ",
"~ ^ # j = % X X X X X X X X X X X X X X X X X X X X X X X X X X X X X X X X X X X X X X X X X X X X X X X X X X X X X X X X X X ",
"~ ^ + m = % X X X X X X X X X X X X X X X X X X X X X X X X X X X X X X X X X X X X X X X X X X X X X X X X X X X X X X X X X X ",
"~ ! @ b 9 X X X X X X X X X X X X X X X X X X X X X X X X X X X X X X X X X X X X X X X X X X X X X X X X X X X X X X X X X X X ",
"/ ( f % X X X X X X X X X X X X X X X X X X X X X X X X X X X X X X X X X X X X X X X X X X X X X X X X X X X X X X X X X X % % ",
"/ ( f % X X X X X X X X X X X X X X X X X X X X X X X X X X X X X X X X X X X X X X X X X X X X X X X X X X X X X X X X X o = x ",
") _ f % X X X X X X X X X X X X X X X X X X X X X X X X X X X X X X X X X X X X X X X X X X X X X X X X X X X X X X X X X g ; # ",
"` ' Z X X X X X X X X X X X X X X X X X X X X X X X X X X X X X X X X X X X X X X X X X X X X X X X X X X X X X X X X X X g ] + ",
"  . X X X X X X X X X X X X X X X X X X X X X X X X X X X X X X X X X X X X X X X X X X X X X X X X X X X X X X X X X X X g ] + ",
"  . X X X X X X X X X X X X X X X X X X X X X X X X X X X X X X X X X X X X X X X X X X X X X X X X X X X X X X X X X X X g ] + ",
"[ { U U U U U U U U U U U U U U U U U U U U U U U U U U U U U U U U U U U U U U U U U U U U U U U U U U U U U U U U U U U } |  .",
"..X.o.o.o.o.o.o.o.o.o.o.o.o.o.o.o.o.o.o.o.o.o.o.o.o.o.o.o.o.o.o.o.o.o.o.o.o.o.o.o.o.o.o.o.o.o.o.o.o.o.o.o.o.o.o.o.o.o.o.o.O.+.@."
};
