/* XPM */
static char *result[] = {
/* columns rows colors chars-per-pixel */
"64 56 244 2 ",
"   c black",
".  c #010101",
"X  c #020202",
"o  c gray1",
"O  c #040404",
"+  c gray2",
"@  c #060606",
"#  c #070707",
"$  c gray3",
"%  c #090909",
"&  c gray4",
"*  c #0B0B0B",
"=  c #0C0C0C",
"-  c gray5",
";  c #0E0E0E",
":  c gray6",
">  c #101010",
",  c #111111",
"<  c gray7",
"1  c #131313",
"2  c gray8",
"3  c #151515",
"4  c #161616",
"5  c gray9",
"6  c #181818",
"7  c #191919",
"8  c gray10",
"9  c #1B1B1B",
"0  c gray11",
"q  c #1D1D1D",
"w  c #1E1E1E",
"e  c gray12",
"r  c #202020",
"t  c gray13",
"y  c #222222",
"u  c #232323",
"i  c gray14",
"p  c #252525",
"a  c gray15",
"s  c #272727",
"d  c #282828",
"f  c gray16",
"g  c #2A2A2A",
"h  c gray17",
"j  c #2C2C2C",
"k  c #2D2D2D",
"l  c gray18",
"z  c #2F2F2F",
"x  c gray19",
"c  c #313131",
"v  c #323232",
"b  c gray20",
"n  c #343434",
"m  c #353535",
"M  c gray21",
"N  c #373737",
"B  c gray22",
"V  c #393939",
"C  c #3A3A3A",
"Z  c gray23",
"A  c #3C3C3C",
"S  c gray24",
"D  c #3E3E3E",
"F  c #3F3F3F",
"G  c gray25",
"H  c gray26",
"J  c #434343",
"K  c #444444",
"L  c gray27",
"P  c #464646",
"I  c gray28",
"U  c #484848",
"Y  c gray29",
"T  c #4B4B4B",
"R  c #4C4C4C",
"E  c gray30",
"W  c #4E4E4E",
"Q  c gray31",
"!  c #515151",
"~  c gray32",
"^  c #535353",
"/  c gray33",
"(  c #555555",
")  c #565656",
"_  c gray34",
"`  c #585858",
"'  c gray35",
"]  c #5B5B5B",
"[  c gray36",
"{  c #5D5D5D",
"}  c gray37",
"|  c #5F5F5F",
" . c #606060",
".. c #626262",
"X. c gray39",
"o. c #646464",
"O. c #656565",
"+. c gray40",
"@. c #676767",
"#. c #686868",
"$. c DimGray",
"%. c #6A6A6A",
"&. c #6C6C6C",
"*. c gray43",
"=. c #6F6F6F",
"-. c gray44",
";. c #727272",
":. c gray45",
">. c #747474",
",. c gray46",
"<. c #767676",
"1. c #777777",
"2. c gray47",
"3. c #797979",
"4. c gray48",
"5. c #7B7B7B",
"6. c #7C7C7C",
"7. c gray49",
"8. c #7E7E7E",
"9. c #808080",
"0. c #818181",
"q. c gray51",
"w. c #838383",
"e. c #848484",
"r. c gray52",
"t. c #868686",
"y. c #888888",
"u. c #898989",
"i. c gray54",
"p. c #8B8B8B",
"a. c #8D8D8D",
"s. c #8E8E8E",
"d. c #909090",
"f. c gray57",
"g. c #929292",
"h. c #939393",
"j. c gray58",
"k. c #959595",
"l. c gray59",
"z. c #979797",
"x. c #989898",
"c. c gray60",
"v. c #9A9A9A",
"b. c #9B9B9B",
"n. c gray61",
"m. c #9D9D9D",
"M. c gray62",
"N. c #9F9F9F",
"B. c #A0A0A0",
"V. c gray63",
"C. c #A2A2A2",
"Z. c gray64",
"A. c #A5A5A5",
"S. c gray65",
"D. c #A7A7A7",
"F. c gray66",
"G. c #A9A9A9",
"H. c #AAAAAA",
"J. c gray67",
"K. c #ACACAC",
"L. c gray68",
"P. c #AEAEAE",
"I. c #AFAFAF",
"U. c gray69",
"Y. c #B1B1B1",
"T. c #B2B2B2",
"R. c gray70",
"E. c #B4B4B4",
"W. c gray71",
"Q. c #B6B6B6",
"!. c #B7B7B7",
"~. c gray72",
"^. c #B9B9B9",
"/. c gray73",
"(. c #BBBBBB",
"). c #BCBCBC",
"_. c gray74",
"`. c gray",
"'. c gray75",
"]. c #C0C0C0",
"[. c #C1C1C1",
"{. c gray76",
"}. c #C3C3C3",
"|. c gray77",
" X c #C5C5C5",
".X c #C6C6C6",
"XX c gray78",
"oX c #C8C8C8",
"OX c gray79",
"+X c #CACACA",
"@X c #CBCBCB",
"#X c gray80",
"$X c #CDCDCD",
"%X c #CECECE",
"&X c gray81",
"*X c #D0D0D0",
"=X c gray82",
"-X c #D2D2D2",
";X c LightGray",
":X c gray83",
">X c #D5D5D5",
",X c gray84",
"<X c #D7D7D7",
"1X c #D8D8D8",
"2X c gray85",
"3X c #DADADA",
"4X c gray86",
"5X c gainsboro",
"6X c #DDDDDD",
"7X c gray87",
"8X c #DFDFDF",
"9X c gray88",
"0X c #E1E1E1",
"qX c #E2E2E2",
"wX c gray89",
"eX c #E4E4E4",
"rX c gray90",
"tX c #E6E6E6",
"yX c #E7E7E7",
"uX c gray91",
"iX c #E9E9E9",
"pX c #EAEAEA",
"aX c gray92",
"sX c #ECECEC",
"dX c gray93",
"fX c #EEEEEE",
"gX c #EFEFEF",
"hX c gray94",
"jX c #F1F1F1",
"kX c gray95",
"lX c #F3F3F3",
"zX c #F4F4F4",
"xX c gray96",
"cX c #F6F6F6",
"vX c gray97",
"bX c #F8F8F8",
"nX c #F9F9F9",
"mX c gray98",
"MX c #FBFBFB",
"NX c gray99",
"BX c #FDFDFD",
"VX c #FEFEFE",
"CX c white",
"ZX c None",
/* pixels */
"ZXZXZXZXZXZXZXZXZXZXZXZXZXZXZXZXZXZXZXZXZXZXZXZXZXZXZXZXZXZXZXZXZXZXZXZXZXZXZXZXZXZXZXZXZXZXZXZXZXZXZXZXZXZXZXZXZXZXZXZXZXZXZXZX",
"ZXZXZXZXZXZXZXZXZXZXZXZXZXZXZXZXZXZXZXZXZXZXZXZXZXZXZXZXZXZXZXZXZXZXZXZXZXZXZXZXZXZXZXZXZXZXZXZXZXZXZXZXZXZXZXZXZXZXZXZXZXZXZXZX",
"ZXZXZXZXZXZXZXZXZXZXZXZXZXZXZXZXZXZXZXZXZXZXZXZXZXZXZXZXZXZXZXZXZXZXZXZXZXZXZXZXZXZXZXZXZXZXZXZXZXZXZXZXZXZXZXZXZXZXZXZXZXZXZXZX",
"ZXZXZXZXZXZXZXZXZXZXZXZXZXZXZXZXZXZXZXZXZXZXZXZXZXZXZXZXZXZXZXZXZXZXZXZXZXZXZXZXZXZXZXZXZXZXZXZXZXZXZXZXZXZXZXZXZXZXZXZXZXZXZXZX",
"ZXZXZXZXZXZXZXZX  ZXZXZXZXZXZXZXZXZXZXZXZXZXZXZXZXZXZXZXZXZXZXZXZXZXZXZXZXZXZXZXZXZXZXZXZXZXZXZXZXZXZXZXZXZXZXZXZXZXZXZXZXZXZXZX",
"ZXZXZXZXZXZXZX  O     ZXZXZXZXZXZXZXZXZXZXZXZXZXZXZXZXZXZXZXZXZXZXZXZXZXZX    ZXZXZXZXZXZXZXZXZXZXZXZXZXZXZXZXZXZXZXZXZXZXZXZXZX",
"ZXZXZXZXZXZXZXo 6.5.1     ZXZXZXZXZXZXZXZXZXZXZXZXZXZXZXZXZXZXZXZXZX      @     ZXZXZXZXZXZXZXZXZXZXZXZXZXZXZXZXZXZXZXZXZXZXZXZX",
"ZXZXZXZXZXZX  s eXCX_.V     ZXZXZXZXZXZXZXZXZXZXZXZXZXZXZXZXZXZX    = K s.W.D   ZXZXZXZXZXZXZXZXZXZXZXZXZXZXZXZXZXZXZXZXZXZXZXZX",
"ZXZXZXZXZXZX  >.CXCXCXeX+.@   ZXZXZXZXZXZXZXZXZXZXZXZXZXZXZXZX  % / /.zXCXCX/.-   ZXZXZXZXZXZXZXZXZXZXZXZXZXZXZXZXZXZXZXZXZXZXZX",
"ZXZXZXZXZX  = '.CXCXCXCXbXy.*   ZXZXZXZXZXZXZXZXZXZXZXZXZX    j F.vXCXCXCXCXbX!   ZXZXZXZXZXZXZXZXZXZXZXZXZXZXZXZXZXZXZXZXZXZXZX",
"ZXZXZXZXZX  M gXCXCXCXCXCXBXf.*   ZXZX                ZX  . Y 2XCXCXCXCXCXCXCXJ.+   ZXZXZXZXZXZXZXZXZXZXZXZXZXZXZXZXZXZXZXZXZXZX",
"ZXZXZXZXZX  ;.CXCXCXCXCXCXCXbX/     X < p b V V z 0 #     u ,XCXCXCXCXCXCXCXCXyXf   ZXZXZXZXZXZXZXZXZXZXZXZXZXZXZXZXZXZXZXZXZXZX",
"ZXZXZXZX  + I.CXCXCXCXCXCXCX6Xp 2 ` V.*XtXhXlXkXdX6XE.@.8   r.CXCXCXCXCXCXCXCXVX}   ZXZXZXZXZXZXZXZXZXZXZXZXZXZXZXZXZXZXZXZXZXZX",
"ZXZXZXZX  9 4XCXCXCXCXCXCXCXkXH.#XMXCXCXCXCXCXCXCXCXCXVX&X;.H.CXCXCXCXCXCXCXCXCXf.  ZXZXZXZXZXZXZXZXZXZXZXZXZXZXZXZXZXZXZXZXZXZX",
"ZXZXZXZX  S zXCXCXCXCXCXCXCXCXCXCXCXCXCXCXCXCXCXCXCXCXCXCXCXCXCXCXCXCXCXCXCXCXCX!.#   ZXZXZXZXZXZXZXZXZXZXZXZXZXZXZXZXZXZXZXZXZX",
"ZXZXZXZX  X.CXCXCXCXCXCXCXCXCXCXCXCXCXCXCXCXCXCXCXCXCXCXCXCXCXCXCXCXCXCXCXCXCXCX=X1       ZXZXZXZXZXZXZXZXZXZXZXZXZXZXZXZXZXZXZX",
"ZXZXZXZX  r.CXCXCXCXCXCXCXCXCXCXCXCXCXCXCXCXCXCXCXCXCXCXCXCXCXCXCXCXCXCXCXCXCXCX9Xw X , #       ZXZXZXZXZXZXZXZXZXZXZXZXZXZXZXZX",
"ZXZXZXZX. V.CXCXCXCXCXCXCXCXCXCXCXCXCXCXCXCXCXCXCXCXCXCXCXCXCXCXCXCXCXCXCXCXCXCXyXp f |.^.y.H =     ZXZXZXZXZXZXZXZXZXZXZXZXZXZX",
"ZXZXZX  @ W.CXCXCXCXCXCXCXCXCXCXCXCXCXCXCXCXCXCXCXCXCXCXCXCXCXCXCXCXCXCXCXCXCXCXpXs N xXCXCXzX(.` =     ZXZXZXZXZXZXZXZXZXZXZXZX",
"ZXZXZX  * |.CXCXCXCXCXCXCXCXCXCXCXCXCXCXCXCXCXCXCXCXCXCXCXCXCXCXCXCXCXCXCXCXCXCXyXu A xXCXCXCXCXnXE.A     ZXZXZXZXZXZXZXZXZXZXZX",
"ZXZXZX  > $XCXCXCXCXCXCXCXCXCXCXCXCXCXCXCXCXCXCXCXCXCXCXCXCXCXCXCXCXCXCXCXCXCXCX6X6 U nXCXCXCXCXCXCXiX:.%   ZXZXZXZXZXZXZXZXZXZX",
"ZXZXZX  < =XCXCXCXCXCXCXCXCXCXCXCXCXCXCXCXCXCXCXCXCXCXCXCXCXCXCXCXCXCXCXCXCXCXCX@X* | CXCXCXCXCXCXCXCXMXd.*   ZXZXZXZXZXZXZXZXZX",
"ZXZXZX  < *XCXCXCXCXCXCXCXCXCXCXCXCXCXCXCXCXCXCXCXCXCXCXCXCXCXCXCXCXCXCXCXCXCXCXP.. 7.CXCXCXCXCXCXCXCXCXBXu.@   ZXZXZXZXZXZXZXZX",
"ZXZXZX  ; +XCXCXCXCXCXCXCXCXCXCXCXCXCXCXCXCXCXCXCXCXCXCXCXCXCXCXCXCXCXCXCXCXCXCXw.  S.CXCXCXCXCXCXCXCXCXCXbX#.    ZXZXZXZXZXZXZX",
"ZXZXZX  # E.CXCXCXCXCXCXCXCXCXCXCXCXCXCXCXCXCXCXCXCXCXCXCXCXCXCXCXCXCXCXCXCXCXbXY ; %XCXCXCXCXCXCXCXCXCXCXCXeXM   ZXZXZXZXZXZXZX",
"ZXZXZXZX. g.CXCXCXCXCXCXCXCXCXCXCXCXCXCXCXCXCXCXCXCXCXCXCXCXCXCXCXCXCXCXCXCXCX:X4 v sXCXCXCXCXCXCXCXCXCXCXCXCXY.=   ZXZXZXZXZXZX",
"ZXZXZXZX  @.xXCXCXCXCXCXCXCXCXCXCXCXCXCXCXCXCXCXCXCXCXCXCXCXCXCXCXCXCXCXCXCXVX6.  =.NXCXCXCXCXCXCXCXCXCXCXCXCXmX}   ZXZXZXZXZXZX",
"ZXZXZXZX  V :XCXCXCXCXiX].CXCXCXCXCXCXCXCXCXCXCXCXCXCXCXCXCXCXCXCXCXCXCXCXCXOXi > T.CXCXCXCXCXCXCXCXCXCXCXCXCXCXXX1   ZXZXZXZXZX",
"ZXZXZXZX  3 C.hXCXCXCX1XD OXNXyXqXCXCXCXCXCXCXCXCXCXCXCXCXCXCXCXCXCXCXCXVX7X=.  E 0XCXCXhX>X*X*X-X:X5XkXCXCXCXCXMX{   ZXZXZXZXZX",
"ZXZXZXZX  . %.+XnXCXCXNXa.C ! S x.CXCXCXCXCXkX@XNXCXCX{.p.xXCXCXCXCXCXBX4XA.y ; b.aX{.4.N < ; ; : , 5 C u.fXCXCXCXW.$   ZXZXZXZX",
"ZXZXZXZXZX  h F.-XMXCXCXBX*XH.}.cXCXCXCXCXCXrXR O.k.-.v z.BXCXCXCXCXnX;XQ...  L 9.L %   8 G  .>.3.*.~ u . d.CXCXCXsXc   ZXZXZXZX",
"ZXZXZXZXZX  o =.Q.=XnXCXCXCXCXCXCXCXCXCXCXCXCX4Xy.+.2.oXCXCXCXCXCXfXXXW.z.6 X e o ; ( S.5XxXCXCXCXCXVX+X1 ] VXCXCXCX%.  ZXZXZXZX",
"ZXZXZXZXZX    q x.W.oXgXCXCXCXCXkX).wXfXbXCXCXCXCXCXCXCXCXCXCXvX3X/.R.L.J     X W }.mXCXCXCXCXCXCXCXCX:X7 E MXCXCXCXv.  ZXZXZXZX",
"ZXZXZXZXZX. 0 o M Z.E.(.2XxXCXCXtXl t c J.CXCXCXCXCXCXCXCXcX8X[.R.R.Y.[ o   * 0.kXCXCXCXCXCXCXCXCXCXNXY.> ! NXCXCXCX].&   ZXZXZX",
"ZXZXZXZX  2 W.~   V M.W.R.`.>XaXbXu.2 &.aXCXCXCXCXBXvXiX:X`.R.T.E.T.+.#   : z.BXCXCXCXCXCXCXCXCXCXCX8Xe.o &.CXCXCXCX1X6   ZXZXZX",
"ZXZXZXZX  Q NX:XA   s t.R.E.T.Q.[.}.K.4XtXrXwX7X>X+X`.W.T.T.R.E.Y.@.%   & k.VXCXCXCXCXCXCXCXCXCXCXuX!.P . N.CXCXCXCXuXd   ZXZXZX",
"ZXZXZXZX  k.CXVX'.E O - ` N.W.E.T.T.W.R.R.E.R.T.T.T.T.R.R.E.Q.S.` #     <.NXCXCXCXCXCXCXCXCXCXCXsX'.5.$ j 5XCXCXCXCXkXN   ZXZXZX",
"ZXZXZX  : OXCXCXzX`.:.w   w o.m.R.Q.E.R.R.R.R.R.R.R.R.W.Q.G.2.j   $   b yXCXCXCXCXCXCXCXCXCXCXuX'.j.q % s.MXCXCXCXCXcXG   ZXZXZX",
"ZXZXZX  s yXCXCXCXhX Xn.( 1   6 E 9.V.U.W.Q.Q.Q.Q.E.L.l.@.j o + T J   l.CXCXCXCXCXCXCXCXCXNX7X).z.g . ..8XCXCXCXCXCXnXP   ZXZXZX",
"ZXZXZX  F xXCXCXCXCXxX-X!.k.` w . o 8 V Q ]  . .] E c :   % B s.:Xb y 0XCXCXCXVXCXCXCXBXdX#XR.9.t . ^ XXNXCXCXCXCXCXlXZ   ZXZXZX",
"ZXZXZX  Q MXCXCXCXCXCXBXpX&X/.C.3.U y = O .       o : g _ d.OXvX:X, ( NXCXCXCX7X-XeX8X#X/.B.^ & @ ' ).cXCXCXCXCXCXnX(.6   ZXZXZX",
"ZXZXZX  / BXCXCXCXCXCXCXCXBXhX5X+X(.G.k.t.6.1.,.3.r.m./.,XfXBXCX^.o 3.CXCXCXnX].Y.R.R.Y.9.s   t 2.W.aXCXCXCXCXmXeX X+.      ZXZX",
"ZXZXZX  K cXCXCXCXCXCXCXCXCXCXCXNXzXaXwX8X4X3X6XqXpXkXmXCXCXCXCXM.  e.CXCXCXcX_.T.E.U.o.* + E M.W.~.rXnXcXdX4X|.!.s.3 4 5   ZXZX",
"ZXZXZX  a ,XCXCXCXCXCXCXCXCXCXCXCXCXCXCXCXCXCXCXCXCXCXCXCXCXCXBXr.  3.VXCXCXMX|.T.Y.X.O   w Z.Q.R.R.!.'._.Q.R.W.k.a % m.}   ZXZX",
"ZXZXZX  > N.pXCXCXCXCXCXCXCXCXCXCXCXCXCXCXCXCXCXCXCXCXCXCXCXCXuX8.  | dXCXCXCX5XW.q.@ d A   ! G.Q.E.E.R.E.Q.J.1.q O 0.VX3.  ZXZX",
"ZXZXZXZX. =.).3XvXCXCXCXCXCXCXCXCXCXCXCXCXCXCXCXCXCXCXCXCXCXxX|.a.$ S oXMXCXCXmX2Xl./ OX<Xm   m w.Z.D.Z.g.$.l X < p.bXCXO.  ZXZX",
"ZXZXZXZX  m L.E.[.4XkXBXCXCXCXCXCXCXCXCXCXCXCXCXCXCXCXCXNXpXXXE.A.r 5 N.2XBXCXCXCXmXmXCXCX2X) @ O 8 e 8 &   > ~ '.VXCX9Xv   ZXZX",
"ZXZXZXZX. $ 8.Q.T.R./.OX4XpXzXmXBXCXCXCXCXCXCXVXNXcXsX4X.XQ.T.R.E./   +.!.>XbXCXCXCXCXCXCXCXxXI.] c d b ^ i.@XvXCXCXhXt.#   ZXZX",
"ZXZXZXZXZX  f M.W.Q.Q.W.W.!.).}.+X*X:X<X<X,X-X$X X_.Q.R.R.E.E.W.!.x.6 3 u.Q.|.wXbXCXCXCXCXCXCXCXBXgXpXhXNXCXCXCXbX0Xh.8   ZXZXZX",
"ZXZXZXZXZX.   p ~ @.,.q.a.j.c.m.V.A.D.G.H.J.K.L.P.P.P.L.H.A.m.j.y.7.n   9 9.T.Q.[.:XrXjXbXNXBXVXCXCXCXBXmXzXuX1X].7.7   ZXZXZXZX",
"ZXZXZXZXZXZX        . + & ; < 4 9 r u a f k x v b n v l s e 4 ; $ o .     ; ` N.E.E.W.^.'. XOX$X%X%X@XXX}._.!.m./ *   ZXZXZXZXZX",
"ZXZXZXZXZXZXZXZXZXZXZX                                            ZXZXZXZX    w _ t.B.K.Y.T.R.R.T.Y.P.F.b.0._ w     ZXZXZXZXZXZX",
"ZXZXZXZXZXZXZXZXZXZXZXZXZXZXZXZXZXZXZXZXZXZXZXZXZXZXZXZXZXZXZXZXZXZXZXZXZXZX      # 7 j A I Y T U G m p 3 @       ZXZXZXZXZXZXZX",
"ZXZXZXZXZXZXZXZXZXZXZXZXZXZXZXZXZXZXZXZXZXZXZXZXZXZXZXZXZXZXZXZXZXZXZXZXZXZXZXZXZX                          ZXZXZXZXZXZXZXZXZXZX",
"ZXZXZXZXZXZXZXZXZXZXZXZXZXZXZXZXZXZXZXZXZXZXZXZXZXZXZXZXZXZXZXZXZXZXZXZXZXZXZXZXZXZXZXZXZXZXZXZXZXZXZXZXZXZXZXZXZXZXZXZXZXZXZXZX",
"ZXZXZXZXZXZXZXZXZXZXZXZXZXZXZXZXZXZXZXZXZXZXZXZXZXZXZXZXZXZXZXZXZXZXZXZXZXZXZXZXZXZXZXZXZXZXZXZXZXZXZXZXZXZXZXZXZXZXZXZXZXZXZXZX"
};
