/* XPM */
static char *result[] = {
/* columns rows colors chars-per-pixel */
"64 64 150 2 ",
"   c #97B49B",
".  c #96B39A",
"X  c #A9C0AC",
"o  c #E7E9E7",
"O  c #5F8F65",
"+  c #5F9065",
"@  c #5D8E63",
"#  c #7DA381",
"$  c #E3E6E4",
"%  c #609066",
"&  c #59855E",
"*  c #57835D",
"=  c #5F8E65",
"-  c #5E8F64",
";  c #7EA482",
":  c #E4E6E4",
">  c #608F66",
",  c #507956",
"<  c #4D7452",
"1  c #5E8C63",
"2  c #619167",
"3  c #5A865F",
"4  c #58835D",
"5  c #55805A",
"6  c #547F5A",
"7  c #507855",
"8  c #4C7251",
"9  c #5B8961",
"0  c #5F8E64",
"q  c #4E7553",
"w  c #5D8B62",
"e  c #608F65",
"r  c #57825C",
"t  c #55805B",
"y  c #58845D",
"u  c #5E8E64",
"i  c #58845E",
"p  c #6D9A64",
"a  c #76A163",
"s  c #659465",
"d  c #78A362",
"f  c #87AE60",
"g  c #699765",
"h  c #5F8F66",
"j  c #78A262",
"k  c #739E63",
"l  c #669465",
"z  c #88AF60",
"x  c #6C9964",
"c  c #5F9066",
"v  c #669565",
"b  c #719D63",
"n  c #689665",
"m  c #86AD60",
"M  c #6B9964",
"N  c #619166",
"B  c #649365",
"V  c #6E9B64",
"C  c #739F63",
"Z  c #629166",
"A  c #7FA861",
"S  c #6A9765",
"D  c #88AE60",
"F  c #6A9864",
"G  c #729E63",
"H  c #82AA61",
"J  c #638D5C",
"K  c #547E5A",
"L  c #6B9660",
"P  c #78A363",
"I  c #84AB61",
"U  c #7EA762",
"Y  c #5D8355",
"T  c #4A7050",
"R  c #739A5B",
"E  c #89B060",
"W  c #86AE60",
"Q  c #6A9865",
"!  c #74A063",
"~  c #67905C",
"^  c #698F58",
"/  c #6A9059",
"(  c #6A9159",
")  c #7DA45E",
"_  c #6F965A",
"`  c #688F59",
"'  c #629063",
"]  c #89AF60",
"[  c #77A262",
"{  c #769D5C",
"}  c #84AB5F",
"|  c #577E54",
" . c #4B7151",
".. c #5B8861",
"X. c #5B8860",
"o. c #5E8759",
"O. c #618756",
"+. c #608757",
"@. c #5B865D",
"#. c #59865F",
"$. c #5E8D64",
"%. c #517A57",
"&. c #4C7252",
"*. c #5C8A62",
"=. c #709D63",
"-. c #5A8760",
";. c #609166",
":. c #6B9864",
">. c #7DA382",
",. c #75A063",
"<. c #739F61",
"1. c #8EB080",
"2. c #E5E7E4",
"3. c #79A362",
"4. c #85AC5E",
"5. c #9DBB7E",
"6. c #E6E8E4",
"7. c #7AA462",
"8. c #6E9A64",
"9. c #639266",
"0. c #6B9862",
"q. c #88AB81",
"w. c #E4E7E4",
"e. c #6F9C64",
"r. c #59855F",
"t. c #537D58",
"y. c #557F5A",
"u. c #56815C",
"i. c #517956",
"p. c #56815B",
"a. c #4C7151",
"s. c #527B57",
"d. c #4B7150",
"f. c #58855E",
"g. c #5C8B62",
"h. c #749F63",
"j. c #629266",
"k. c #80A961",
"l. c #83AB61",
"z. c #7CA562",
"x. c #82AB61",
"c. c #85AC60",
"v. c #679565",
"b. c #84AC60",
"n. c #81A961",
"m. c #619066",
"M. c #7DA662",
"N. c #81AA61",
"B. c #689765",
"V. c white",
/* pixels */
"                                                                                                                          . X o ",
"O O O O O O O O O O O O O O O O O O O O O O O O O O O O O O O O O O O O O O O O O O O + + O O O O O O O O O O O O O O O O @ # $ ",
"% % % % % % % % % % % % % % % % % % % % % % % % % % % % % % % % % % % % % % % % % % % & * = % % % % % % % % % % % % % % % - ; : ",
"% % % % % % % % % % % % % % % % % % % % % % % % % % % % % % % % % % % % % % % % % % > , < 1 2 % % % % % % % % % % % % % % - ; : ",
"% % % % % % % % % % % % % % % % % % % % % % % % % % % % % % % % % % % % % % % % > 3 4 5 6 * & = % % % % % % % % % % % % % - ; : ",
"% % % % % % % % % % % % % % % % % % % % % % % % % % % % % % % % % % % % % % % % = 7 8 9 0 q < w % % % % % % % % % % % % % - ; : ",
"% % % % % % % % % % % % % % % % % % % % % % % % % % % % % % % % % % % % % % % % e & r t t r y u % % % % % % % % % % % % % - ; : ",
"% % % % % % % % % % % % % % % % % % % % % % % % % % % % % % % % % % % % % % % % % % > , < 1 2 % % % % % % % % % % % % % % - ; : ",
"% % % % % % % % % % % % % % % % % % % % % % % % % % % % % % % % % % % % % % % % % % > i r = % % % % % % % % % % % % % % % - ; : ",
"% % % % % % % % % % % % % % % % % % % % % % % % % % % % % % % % % % % % % % % % % % % % % % % % % % % % % % % % % % % % % - ; : ",
"% % % % % % % % % % % % % % % % % % % % % % % % % % % % % % % % % % % % % % % % % % % % % % % % % % % % % % % % % % % % % - ; : ",
"% % % % % % % % % % % % % % % % % % % % % % % % % % % % % % % % % % % % % % % % % % % % % % % % % % % % % % % % % % % % % - ; : ",
"% % % % % % % % % % % % % % % % % % % % % % % % % % % % % % % % % p a s % % % % % % % % % % % % % % % % % % % % % % % % % - ; : ",
"% % % % % % % % % % % % % % % % % % % % % % % % % % % % % % % % % d f g h % % % % % % % % % % % % % % % % % % % % % % % % - ; : ",
"% % % % % % % % % % % % % % % % % % % % % % % % % % % % % % % % % j f d k l % % % % % % % % % % % % % % % % % % % % % % % - ; : ",
"% % % % % % % % % % % % h % % % % % % % % % % % % % % % % % % % % j z f f x h % % c h % % % % % % % % % % % % % % % % % % - ; : ",
"% % % % % % % % % % % v b n % % % % % % % % % % % % % % % % % % % j z f m M h % N p b B % % % % % % % % % % % % % % % % % - ; : ",
"% % % % % % % % % % h V z C c % % % % % % % % % % % % % % % % % % d z f m M % % Z A f S c % % % % % % % % % % % % % % % % - ; : ",
"% % % % % % % % % % h V D C c % % % % % % % % % % % % % % % % % % F G H m J K L P I m S c % % % % % % % % % % % % % % % % - ; : ",
"% % % % % % % % % % h V D C c % c % % % % % % % % % % % % % % % % c N U f Y T R E z W Q c % % % % % % % % % % % % % % % % - ; : ",
"% % % % % % % % % % h V D C h g ! x % % % % % % % % % % % % % % % % % ~ ^ / ( ) m _ ` ' % % % % % % % % % % % % % % % % % - ; : ",
"% % % % % % % % % % h V D C h G ] [ % % % % % % % % % % % % % % % % O , 8 { E f } |  ...% % % % % % % % % % % % % % % % % - ; : ",
"% % % % % % % % % % h V D C h G z [ % % % % % % % % % % % % % % % % % X.& o.O.O.+.@.#.$.% % % % % % % % % % % % % % % % % - ; : ",
"% % % % % % % % % % h V z C h G z [ % % % % % % % % % % % % % % % % % % % %.T  .&.*.2 % % % % % % % % % % % % % % % % % % - ; : ",
"% % % % % % % % % % % l =.n h G z [ % % % % % % % % % % % % % % % % % % % -.4 y i $.% % % % % % % % % % % % % % % % % % % - ; : ",
"% % % % % % % % % % % % h % h G ] [ % % % % % % % % % % % % % % % % % % % % ;.;.;.% % % % % % % % % % % % % % % % % % % % - ; : ",
"% % % % % % % % % % % % % % % g C :.% % % % % % % % % % % % % % % % % % % % % % % % % % % % % % % % % % % % % % % % % % % - ; : ",
"% % % % % % % % % % % % % % % % h % % % % % % % % % % % % % % % % % % % % % % % % % % % % % % % % % % % % % % % % % % % % - ; : ",
"% % % % % % % % % % % % % % % % % % % % % % % % % % % % % % % % % % % % % % % % % % % % % % % % % % % % % % % % % % % % % - ; : ",
"% % % % % % % % % % % % % % % % % % % % % % % % % % % % % % % % % % % % % % % % % % % % % % % % % % % % % % % % % % % % % - ; : ",
"j G N % % % % % % % % % % % % % % % % % % % % % % % % % % % % % % % % % % % % % % % % % % % % % % % % % % % % % % % % % % - ; : ",
"] A N % % % % % % % % % % % % % % % % % % % % % % % % % % % % % % % % % % % % % % % % % % % % % % % % % % % % % % % % % % u >.: ",
"G k ,.p % % % % % % % % % % % % % % % % % % % % % % % % % % % % % % % % % % % % % % % % % % % % % % % % % % % % % % % % s <.1.2.",
"h g m 3.% % % % % % % % % % % % % % % % % % % % % % % % % % % % % % % % % % % % % % % % % % % % % % % % % % % % % % % c S 4.5.6.",
"7.[ 8.n % % % % % % % % % % % % % % % % % % % % % % % % % % % % % % % % % % % % % % % % % % % % % % % % % % % % % % % % 9.0.q.w.",
"z A N c % % % % % % % % % % % % % % % % % % % % % % % % % % % % % % % % % % % % % % % % % % % % % % % % % % % % % % % % % u >.$ ",
"e.x N % % % % % % % % % % % % % % % % % % % % % % % % % % % % % % % % % % % % % % % % % % % % % % % % % % % % % % % % % % - ; : ",
"h c % % % % % % % % % % % % % % % % % % % % % % % % % % % % % % % % % % % % % % % % % % % % % % % % % % % % % % % % % % % - ; : ",
"% % % % % % % % % % % % % % % % % % % % % % % % % % % % % % % % % % % % % % % % % % % % % % % % % % % % % % % % % % % % % - ; : ",
"% % % % % % % % % % % % % % % % % % % % % % % % % % % % % % % % % % % % % % % % % % % % % % % % % % % % % % % % % % % % % - ; : ",
"% % % % % % % % % % % % % % % % % % % % % % % % % % % % % % % % % % % % % % % % % % % % % % % % % % % % % % % % % % % % % - ; : ",
"% % % % % % % % % % % % % % % % % % % % % % % % % % % % % % % % % % % % % % % % % % % % % % % % % % % % % % % % % % % % % - ; : ",
"% % % % % % % % % % % % % % % % % % % r.t.-.% % % % % % % % % % % % % % % % % % % % % % % % % % % % % % % % % % % % % % % - ; : ",
"% % % % % % % % % % % % % % % % % % e y.8 u.> % % % % % % % % % % % % % % % % % % % % % % % % % % % % % % % % % % % % % % - ; : ",
"% % % % % % % % % % % % % % % % % -.i.r 9 p.i...% % % % % % % % % % % % % % % % % % % % % % % % % % % % % % % % % % % % % - ; : ",
"% % % % % % % % % % % % % % % % ;.y a.* 2 p.8 #.;.% % % % % % % % % % % % % % % % % % % % % % % % % % % % % % % % % % % % - ; : ",
"% % % % % % % % % % % % % % % % % 1 -.t s.u.-.$.% % % % % % % % % % % % % % % % % % % % % % % % % % % % % % % % % % % % % - ; : ",
"% % % % % % % % % % % % % % % % % % 2 y.d.u.2 % % % % % % % % % % % % % % % % % % % % % % % % % % % % % % % % % % % % % % - ; : ",
"% % % % % % % % % % % % % % % % % % % *.f.g.% % % % % % % % % % % % % % % % % % % % % % % % % % N h.a 9.% % % % % % % % % - ; : ",
"% % % % % % % % % % % % % % % % % % % % ;.% % % % % % % % % % % % % % % % % % % % % % % % N N % j.k.l.B % % % % % % % % % - ; : ",
"% % % % % % % % % % % % % % % % % % % % % % % % % % % % % % % % % % % % % % % % % % % % 9.7.z.s Z A H B % % % % % % % % % - ; : ",
"% % % % % % % % % % % % % % % % % % % % % % % % % % % % % % % % % % % % % % % % % % % % B x.c.v.Z A H B % % % % % % % % % - ; : ",
"% % % % % % % % % % % % % % % % % % % % % % % % % % % % % % % % % % % % % % % % % % % % B H b.v Z A H B % % % % % % % % % - ; : ",
"% % % % % % % % % % % % % % % % % % % % % % % % % % % % % % % % % % % % % % % % % % % % B H b.v Z A H B % % % % % % % % % - ; : ",
"% % % % % % % % % % % % % % % % % % % % % % % % % % % % % % % % % % % % % % % % % % % % B H b.v.% :.x N % % % % % % % % % - ; : ",
"% % % % % % % % % % % % % % % % % % % % % % % % % % % % % % % % % % % % % % % % % % % % B n.l.v % c c % % % % % % % % % % - ; : ",
"% % % % % % % % % % % % % % % % % % % % % % % % % % % % % % % % % % % % % % % % % % % % N n n N % % % % % % % % % % % % % - ; : ",
"% % % % % % % % % % % % % % % % % % % % % % % % % m.N % % % % % % % % % % % % % % % % % % % c % % % % % % % % % % % % % % - ; : ",
"% % % % % % % % % % % % % % % % % % % % % % % % % b M.x h % % % % % % % % % % % % % % % % % % % % % % % % % % % % % % % % - ; : ",
"% % % % % % % % % % % % % % % % % % % % % % % j.9.j m G j.N % % % % % % % % % % % % % % % % % % % % % % % % % % % % % % % - ; : ",
"% % % % % % % % % % % % % % % % % % % % % % % a N.b l ,.k.g c % % % % % % % % % % % % % % % % % % % % % % % % % % % % % % - ; : ",
"% % % % % % % % % % % % % % % % % % % % % % % 3.W e.% a m :.c % % % % % % % % % % % % % % % % % % % % % % % % % % % % % % - ; : ",
"% % % % % % % % % % % % % % % % % % % % % % % l B.a A G n j.% % % % % % % % % % % % % % % % % % % % % % % % % % % % % % % - ; : ",
"% % % % % % % % % % % % % % % % % % % % % % % % h d ] b h % % % % % % % % % % % % % % % % % % % % % % % % % % % % % % % % - ; : "
};
